<svg width="120" height="11" viewBox="0 0 120 11" fill="none" xmlns="http://www.w3.org/2000/svg">
<path fill-rule="evenodd" clip-rule="evenodd" d="M8.28795 7.18215C7.62681 7.29605 6.94172 7.39644 6.50844 7.71703C7.14778 7.58235 7.85145 7.51425 8.28795 7.18215ZM50.049 1.26953C52.7404 1.29391 55.4126 1.12105 58.0951 1.05591C61.9416 0.962119 65.7881 0.857845 69.6454 0.947417C72.0151 1.00273 74.3862 0.915095 76.7664 1.007C82.3172 1.22159 87.8749 1.35609 93.4076 1.72079C97.8486 2.01361 102.295 2.27636 106.721 2.63172C110.645 2.94703 114.495 3.44176 118.361 3.90177C118.903 3.96617 119.437 4.06186 119.813 4.29099C119.612 4.55059 119.14 4.22978 118.953 4.4559C119.237 4.63425 120.223 4.49687 119.936 4.8439C119.701 5.12765 119.071 5.3645 118.236 5.33973C117.077 5.30527 116.066 5.01225 114.944 4.92008C109.965 4.51112 105.012 4.02458 99.9874 3.77029C96.8969 3.61389 93.808 3.38873 90.7095 3.38452C88.9917 3.38193 87.3348 3.10279 85.621 3.19835C85.1999 3.22175 84.7727 3.10706 84.3713 3.33222C84.2223 3.41568 83.5656 3.57133 83.4825 3.16017C83.4648 3.07342 83.1643 3.10875 82.9779 3.10621C80.963 3.07867 78.9215 2.92364 76.941 3.04592C75.013 3.16496 73.1061 3.06306 71.1911 3.12661C69.8381 3.1713 68.4939 2.86352 67.0908 2.96006C66.5116 2.99967 65.9149 2.96697 65.3569 3.09141C65.1379 3.08562 64.9193 3.08011 64.7003 3.07433C63.2113 2.98308 61.728 2.97405 60.2605 3.16813C58.6963 3.07038 57.147 3.11092 55.6134 3.30482C53.9516 3.28914 52.2995 3.24155 50.6843 3.57421C50.0133 3.71232 49.2162 3.67169 48.4828 3.73289C45.9851 3.94116 43.4918 4.16376 40.9935 4.36821C40.5313 4.40606 40.0446 4.53004 39.5825 4.35331C38.2718 4.30867 37.0258 4.46623 35.802 4.69233C34.5791 4.94626 33.2605 4.94549 31.9908 5.06122C30.3547 5.21051 28.7681 5.35179 27.2416 5.75276C25.9856 6.08262 24.4981 6.08327 23.1347 6.30831C20.1549 6.8007 17.0722 7.21467 14.3536 7.98877C11.3968 8.83069 8.09446 9.23387 5.26351 10.1973C4.54153 10.4431 3.95069 10.7851 3.1024 10.944C2.2378 11.1057 0.83316 10.9146 0.283613 10.4049C-0.165841 9.98803 -0.102369 9.53621 0.627238 9.16137C1.87694 8.51972 3.28698 7.98783 4.75323 7.50428C11.0621 5.42396 17.927 4.02398 25.0264 2.92888C31.9618 1.8589 39.0295 1.119 46.1971 0.64737C49.8451 0.40742 53.5128 0.322735 57.1781 0.198542C60.9492 0.0707597 64.7179 -0.0293527 68.4936 0.00786101C71.8559 0.0410501 75.2147 0.143818 78.5726 0.238529C82.5056 0.349113 86.432 0.488029 90.3386 0.715545C99.7091 1.26126 109.058 1.89744 118.161 3.27058C118.774 3.36318 119.555 3.26675 120 3.67382C119.327 3.87333 118.674 3.7809 118.033 3.68872C113.347 3.01272 108.589 2.5417 103.795 2.12334C96.7294 1.50652 89.5985 1.25352 82.4887 0.891668C79.05 0.716638 75.5756 0.74771 72.1213 0.650211C67.5892 0.521823 63.0591 0.594914 58.5338 0.680048C55.8273 0.730977 53.1092 0.829281 50.4346 1.10538C50.2402 1.12554 50.0729 1.15771 50.0579 1.28258C49.5717 1.08206 49.0421 1.21319 48.5412 1.24059C44.6399 1.45442 40.7665 1.76944 36.9027 2.12508C34.4774 2.34843 32.0881 2.66126 29.6748 2.91289C27.135 3.17751 24.6497 3.61712 22.1942 4.06272C21.4987 4.18884 20.5145 4.11464 20.1185 4.60119C18.9632 4.44753 18.1644 4.84881 17.2793 5.11386C18.2559 4.98973 19.2389 4.87447 20.106 4.58422C20.3613 4.56352 20.628 4.56143 20.8706 4.51953C28.0391 3.27266 35.3714 2.39915 42.8309 1.81758C45.2357 1.62993 47.6428 1.45202 50.049 1.26953Z" fill="#FF6756"/>
</svg>
