<svg width="71" height="7" viewBox="0 0 71 7" fill="none" xmlns="http://www.w3.org/2000/svg">
<path fill-rule="evenodd" clip-rule="evenodd" d="M0.683592 6.03792C3.61313 4.61939 3.61313 4.61939 4.87636 3.23134C6.27668 1.23877 7.97483 0.91156 10.0948 2.29888C10.8429 2.78875 11.4981 3.40912 12.165 4.00112C14.0595 5.6835 16.1375 5.91046 18.32 4.61203C19.3375 4.00585 20.2974 3.31928 21.3111 2.71026C23.4916 1.39953 26.6194 0.716748 29.3839 2.98545C30.3341 3.76659 31.4014 4.48343 32.5361 4.99599C34.4754 5.87359 36.2898 5.8698 37.4636 3.84414C38.7321 1.6596 40.7369 0.910611 43.3246 1.04679C44.6048 1.11299 45.6761 1.42792 46.5959 2.24688C47.2121 2.79538 47.8303 3.34576 48.4904 3.84414C50.1524 5.09623 52.0478 5.0726 53.7206 3.79592C54.2137 3.41953 54.6795 3.011 55.1463 2.60151C57.9167 0.173935 61.0112 0.0623354 63.8959 2.30267C64.6038 2.85211 65.304 3.41669 65.9788 4.00302C66.9924 4.88913 68.1076 5.51801 69.5645 5.53125C69.9131 5.53408 70.2598 5.80645 70.6836 5.98897C69.9493 6.97437 68.9913 6.71997 68.2912 6.47882C67.2482 6.12135 66.2756 5.5322 65.3616 4.92507C64.4974 4.35293 63.7758 3.6011 62.9457 2.97978C60.6988 1.29551 58.2106 1.4194 56.0681 3.2739C55.4451 3.81483 54.827 4.3671 54.1561 4.85413C52.2627 6.22821 49.961 6.24619 48.0568 4.89953C47.382 4.42101 46.7707 3.85927 46.1321 3.33442C43.7982 1.409 40.5992 1.71162 38.7565 4.0295C36.3269 7.08974 34.2255 7.44531 30.8292 5.34305C30.0616 4.86926 29.3409 4.32454 28.6046 3.8063C26.5061 2.33198 24.3451 2.2185 22.0981 3.53017C20.9566 4.19593 19.8854 4.9714 18.7428 5.63811C16.2713 7.08312 13.5116 6.74266 11.3848 4.81535C10.6749 4.17323 9.94739 3.5226 9.12614 3.02044C7.83519 2.23079 6.92705 2.44358 6.01791 3.58597C5.62217 4.08325 5.17067 4.44066 5.0779 4.61939C4.10139 5.56508 2.91208 6.51077 1.66011 6.51077C1.34215 6.51077 0.683592 6.03792 0.683592 6.03792Z" fill="#FF6756"/>
<path fill-rule="evenodd" clip-rule="evenodd" d="M7.6618 5.7666C7.3508 5.2586 7.04181 4.94561 7.00082 4.60361C6.97982 4.43061 7.4418 4.2036 7.6878 3.9996C7.9368 4.3056 8.28481 4.58461 8.39681 4.93161C8.44381 5.08361 8.0188 5.3786 7.6618 5.7666Z" fill="#FF6756"/>
<path fill-rule="evenodd" clip-rule="evenodd" d="M33.6503 3.39453C33.3543 3.04253 33.0753 2.83655 33.0033 2.57755C32.9643 2.42955 33.2613 2.19554 33.4073 1.99954C33.6723 2.22854 33.9723 2.43054 34.1703 2.70354C34.2163 2.76454 33.9033 3.06653 33.6503 3.39453Z" fill="#FF6756"/>
<path fill-rule="evenodd" clip-rule="evenodd" d="M51.7276 1.00018C51.9846 1.43818 52.2937 1.73418 52.2437 1.95018C52.1907 2.17218 51.7687 2.47217 51.5367 2.45217C51.3247 2.43317 50.9866 2.02318 51.0006 1.80218C51.0126 1.57118 51.3806 1.36018 51.7276 1.00018Z" fill="#FF6756"/>
<path fill-rule="evenodd" clip-rule="evenodd" d="M15 2.76153C15.306 2.44453 15.52 2.22153 15.733 1.99953C15.987 2.25753 16.331 2.48353 16.455 2.79153C16.505 2.91653 16.076 3.39553 15.868 3.39453C15.62 3.39253 15.371 3.05053 15 2.76153Z" fill="#FF6756"/>
<path fill-rule="evenodd" clip-rule="evenodd" d="M58.9999 4.3113C59.3789 4.1643 59.7219 3.9403 59.8169 4.0143C60.0419 4.1833 60.1439 4.4983 60.2969 4.7533C60.0129 4.8483 59.7209 5.02429 59.4439 5.00429C59.3069 4.99329 59.1959 4.6303 58.9999 4.3113Z" fill="#FF6756"/>
<path fill-rule="evenodd" clip-rule="evenodd" d="M24 5.41626C24.343 5.21926 24.582 4.97125 24.767 5.00325C24.981 5.04125 25.149 5.32726 25.334 5.50626C25.109 5.70026 24.909 5.96226 24.645 6.05626C24.552 6.09126 24.3 5.72526 24 5.41626Z" fill="#FF6756"/>
<path fill-rule="evenodd" clip-rule="evenodd" d="M42.7642 5.6748C42.2552 4.9098 41.9512 4.58582 42.0062 4.51282C42.1772 4.28982 42.4832 4.16382 42.7372 3.99982C42.8612 4.21382 43.0702 4.42181 43.0852 4.64081C43.0982 4.88981 42.9382 5.1478 42.7642 5.6748Z" fill="#FF6756"/>
</svg>
